 <svg  version="1.0" xmlns="http://www.w3.org/2000/svg"  width="300.000000pt" height="68.000000pt" viewBox="0 0 300.000000 68.000000"  preserveAspectRatio="xMidYMid meet">  <g transform="translate(0.000000,68.000000) scale(0.100000,-0.100000)" fill="#cedd69" stroke="none"> <path d="M150 671 c0 -5 16 -21 34 -36 19 -15 37 -34 40 -41 10 -26 -12 -59 -50 -78 -22 -10 -54 -26 -72 -35 -18 -9 -49 -33 -68 -53 -58 -63 -43 -145 36 -189 14 -7 29 -12 33 -11 5 1 23 -4 40 -12 18 -7 48 -20 67 -27 19 -7 64 -31 100 -53 135 -82 190 -105 287 -118 78 -10 104 -9 176 5 84 17 150 44 187 79 10 10 24 18 30 18 5 0 10 5 10 10 0 6 7 10 15 10 8 0 15 4 15 9 0 21 113 51 193 51 109 0 140 -10 244 -78 111 -73 142 -88 223 -102 65 -12 138 -9 196 9 45 13 164 73 164 83 0 4 7 8 15 8 8 0 15 4 15 9 0 5 26 22 58 37 47 24 72 29 148 32 78 3 99 0 145 -19 30 -13 63 -31 73 -41 11 -10 26 -18 33 -18 7 0 13 -4 13 -10 0 -5 7 -10 15 -10 8 0 15 -4 15 -10 0 -5 6 -10 14 -10 8 0 16 -4 18 -8 6 -16 122 -65 163 -70 81 -9 168 32 178 84 4 22 -8 40 -78 114 -97 101 -123 144 -103 167 14 17 126 93 137 93 12 0 71 65 71 78 0 7 5 12 10 12 20 0 9 47 -21 88 -28 38 -35 42 -72 42 l-42 0 30 -16 c71 -37 93 -84 60 -131 -9 -12 -58 -47 -111 -78 -64 -38 -98 -64 -105 -82 -16 -42 22 -103 117 -190 46 -43 84 -85 84 -94 0 -16 -50 -42 -102 -53 -55 -12 -126 14 -236 87 -146 96 -185 111 -297 111 -105 0 -144 -14 -270 -98 -102 -69 -157 -87 -260 -87 -103 0 -158 18 -260 87 -125 83 -165 98 -270 98 -114 1 -163 -16 -278 -93 -116 -79 -163 -94 -292 -93 -126 1 -168 15 -298 94 -59 37 -140 75 -205 98 -113 39 -132 55 -132 111 0 42 38 78 127 121 46 22 90 49 98 61 31 45 10 94 -55 127 -44 22 -50 24 -50 11z"/> </g> </svg> 