<?xml version="1.0" standalone="no"?>
<!DOCTYPE svg PUBLIC "-//W3C//DTD SVG 20010904//EN"
 "http://www.w3.org/TR/2001/REC-SVG-20010904/DTD/svg10.dtd">
<svg version="1.0" xmlns="http://www.w3.org/2000/svg"
 width="300.000000pt" height="68.000000pt" viewBox="0 0 300.000000 68.000000"
 preserveAspectRatio="xMidYMid meet">
<metadata>
Created by potrace 1.10, written by Peter Selinger 2001-2011
</metadata>
<g transform="translate(0.000000,68.000000) scale(0.100000,-0.100000)"
fill="#cddc68" stroke="none">
<path d="M177 665 c-83 -17 -132 -48 -122 -79 3 -11 7 -27 7 -33 1 -7 4 -13 8
-13 12 0 95 -82 92 -91 -1 -6 2 -8 7 -5 12 8 69 -58 77 -88 11 -45 -1 -59 -91
-111 -139 -80 -170 -145 -99 -211 22 -21 45 -34 62 -34 l27 0 -30 16 c-106 55
-100 126 17 189 84 45 136 83 143 105 12 37 -32 105 -121 189 -48 44 -84 86
-82 93 7 24 76 49 130 49 69 0 91 -9 217 -91 139 -91 174 -103 286 -104 104 0
151 17 276 102 96 65 152 83 254 83 102 0 158 -18 254 -83 127 -86 171 -102
281 -102 116 1 152 13 277 95 113 75 161 90 283 90 120 0 179 -18 289 -86 99
-61 177 -97 261 -121 69 -19 80 -29 87 -81 7 -53 -23 -88 -114 -129 -115 -52
-146 -97 -107 -152 18 -26 93 -67 102 -56 4 4 1 9 -7 12 -7 2 -21 12 -31 22
-9 9 -24 20 -34 23 -9 4 -14 11 -11 17 3 5 1 10 -4 10 -6 0 -11 7 -11 15 0 8
5 15 10 15 6 0 9 5 8 11 -3 14 123 79 136 71 5 -3 6 0 2 6 -3 6 3 13 13 17 31
10 71 63 71 95 0 34 -15 77 -33 93 -6 7 -39 21 -72 31 -89 27 -155 57 -149 67
3 5 2 8 -3 7 -15 -4 -54 14 -126 58 -89 55 -151 74 -258 78 -93 3 -161 -10
-228 -42 -24 -12 -48 -19 -52 -16 -5 3 -9 -2 -9 -10 0 -9 -19 -25 -42 -37 -24
-12 -47 -28 -53 -35 -18 -22 -108 -46 -180 -47 -82 -1 -148 10 -140 23 3 6 -1
7 -10 4 -10 -4 -48 15 -102 52 -126 84 -184 105 -296 106 -79 1 -101 -3 -157
-26 -36 -16 -73 -28 -83 -28 -9 1 -15 -4 -11 -9 3 -6 -3 -13 -15 -16 -11 -3
-18 -9 -15 -14 3 -5 -1 -9 -9 -9 -7 0 -23 -9 -34 -19 -12 -11 -24 -17 -27 -13
-4 3 -11 0 -16 -8 -5 -8 -13 -15 -17 -16 -4 0 -21 -6 -38 -13 -63 -27 -285 -3
-285 30 0 5 -3 8 -8 6 -12 -3 -112 64 -112 76 0 6 -3 8 -6 5 -3 -3 -35 9 -70
28 -36 19 -73 34 -82 34 -15 0 -15 2 -2 10 19 12 12 11 -73 -5z"/>
</g>
</svg>
